<svg width="20" height="21" viewBox="0 0 20 21" fill="none" xmlns="http://www.w3.org/2000/svg">
<g id="Frame">
<path id="Vector" d="M3.33697 5.84714L0.634766 3.14494L1.81327 1.96643L4.51547 4.66863H17.2169C17.6772 4.66863 18.0502 5.04172 18.0502 5.50196C18.0502 5.58306 18.0384 5.66373 18.0152 5.74141L16.0152 12.4081C15.9094 12.7605 15.5849 13.002 15.2169 13.002H5.00363V14.6686H14.1703V16.3353H4.1703C3.71006 16.3353 3.33697 15.9622 3.33697 15.502V5.84714ZM5.00363 6.3353V11.3353H14.5969L16.0969 6.3353H5.00363ZM4.58697 19.6686C3.89661 19.6686 3.33697 19.109 3.33697 18.4186C3.33697 17.7283 3.89661 17.1686 4.58697 17.1686C5.27733 17.1686 5.83697 17.7283 5.83697 18.4186C5.83697 19.109 5.27733 19.6686 4.58697 19.6686ZM14.587 19.6686C13.8966 19.6686 13.337 19.109 13.337 18.4186C13.337 17.7283 13.8966 17.1686 14.587 17.1686C15.2773 17.1686 15.837 17.7283 15.837 18.4186C15.837 19.109 15.2773 19.6686 14.587 19.6686Z" fill="#454545"/>
<circle id="Ellipse 15" cx="16" cy="5" r="4" fill="#FF2626"/>
</g>
</svg>
