<svg width="20" height="20" viewBox="0 0 20 20" fill="none" xmlns="http://www.w3.org/2000/svg">
<g id="expand-svgrepo-com 1" clip-path="url(#clip0_1_294)">
<g id="Page-1">
<g id="Icon-Set">
<path id="expand" fill-rule="evenodd" clip-rule="evenodd" d="M19.8031 0.187531C19.6894 0.0750305 19.5319 0 19.3575 0H13.75C13.4044 0 13.125 0.28125 13.125 0.625C13.125 0.96875 13.4044 1.25 13.75 1.25H17.8931L11.1437 8.00003L12.0275 8.88123L18.7694 2.13753L18.75 6.25C18.75 6.59375 19.0294 6.875 19.375 6.875C19.7206 6.875 20 6.59375 20 6.25V0.625C20 0.4375 19.9237 0.287531 19.8031 0.187531ZM7.97251 11.1188L1.23062 17.8625L1.25 13.75C1.25 13.4062 0.970625 13.125 0.625 13.125C0.279375 13.125 0 13.4062 0 13.75V19.375C0 19.5625 0.0762515 19.7125 0.196877 19.8125C0.310627 19.925 0.468134 20 0.642509 20H6.25C6.59562 20 6.875 19.7188 6.875 19.375C6.875 19.0312 6.59562 18.75 6.25 18.75H2.10688L8.85626 12L7.97251 11.1188Z" fill="#1F1F1F"/>
</g>
</g>
</g>
<defs>
<clipPath id="clip0_1_294">
<rect width="20" height="20" fill="white"/>
</clipPath>
</defs>
</svg>
