<svg width="200" height="62" viewBox="0 0 200 62" fill="none" xmlns="http://www.w3.org/2000/svg">
<path d="M39.35 39.3H43.3V40.05H35.7V41.05H40.6V42.05H36.3V43.05H36.85V43.8H36.5V44.3H35.45V44.8H35.4V45.3H36.45V46.3H37.9V46.65C37.9 46.7167 37.8833 46.7667 37.85 46.8H28.95C28.9167 46.8667 28.9 46.95 28.9 47.05H32.35C32.25 47.3833 32.0667 47.6333 31.8 47.8H30.85C30.6833 47.9333 30.45 48 30.15 48H4.1C3.83333 48 3.58333 47.9333 3.35 47.8H4.3C4.06667 47.6333 3.88333 47.3833 3.75 47.05H0.25C0.216667 46.9833 0.2 46.9 0.2 46.8H9.15V46.3H7.7V45.3H6.65V44.8H6.7V44.3H7.75V43.8H8.1V43.05H7.55V42.05H11.85V41.05H6.95V40.05H14.55V39.3H10.6V38.8H11.75V38.3H12.25V37.8H6.7V37.3H5.4V36.55H10.05V36.3H6.35V35.8H7.45V35.3H8.25V34.55H8.15V33.55H7.65V32.55H6.9V32.05H7.5V31.05H6.95V30.55H7.75V29.8H7.95V29.05H8.85V28.8H8V27.8H7.25V27.05H7.45V26.3H7.55V25.3H8.3V24.3H7.2V23.3H7.35V22.3H8.75V21.55H8V20.8H7.6V20.55H9.7V19.8H13.4V19.3H11.9V18.8H7.05V18.55H7.6V17.8H7.65V17.05H7.8V16.05H7.75V14.8H7.65V14.35C7.65 14.2167 7.66667 14.1167 7.7 14.05H7.2C7.33333 13.35 7.76667 13 8.5 13H34.15C34.9167 13 35.35 13.35 35.45 14.05H35.95C35.9833 14.1167 36 14.2167 36 14.35V14.8H36.1V16.05H36.15V17.05H36V17.8H35.95V18.55H35.4V18.8H40.25V19.3H41.75V19.8H38.05V20.55H35.95V20.8H36.35V21.55H37.1C37.0333 21.8833 36.9167 22.1333 36.75 22.3H35.35C35.1167 22.6 34.7833 22.75 34.35 22.75H19.35V23.3H19.2V24.3H20.3V25.3H19.55V25.9H33.45C33.8167 25.9 34.1333 26.0333 34.4 26.3H34.3C34.4667 26.4667 34.5833 26.7167 34.65 27.05H34.5V27.8H35.25V28.8H36.1V29.05H35.2V29.8H35V30.55H34.2V31.05H34.75V32.05H34.15V32.55H34.9V33.55H35.4V33.75C35.4 34.1167 35.3167 34.3833 35.15 34.55H35.25C34.9833 34.9167 34.6167 35.1 34.15 35.1H20.25V35.3H19.45V35.8H18.35V36.3H22.05V36.55H17.4V37.3H18.7V37.8H24.25V38.25H39.65C39.8167 38.25 39.95 38.2667 40.05 38.3H39.5C39.8333 38.4 40.0833 38.5667 40.25 38.8H39.1C39.2333 39 39.3167 39.1667 39.35 39.3ZM44.2996 48.8C43.3329 48.8 42.5163 48.45 41.8496 47.75C41.2163 47.0167 40.8996 46.15 40.8996 45.15C40.8996 44.1167 41.2329 43.25 41.8996 42.55C42.5996 41.8167 43.3996 41.45 44.2996 41.45C45.2663 41.45 46.0663 41.8167 46.6996 42.55C47.3329 43.25 47.6496 44.1167 47.6496 45.15C47.6496 46.15 47.3329 47.0167 46.6996 47.75C46.0663 48.45 45.2663 48.8 44.2996 48.8Z" fill="#38B6FF"/>
<path d="M52.8148 48V45.25C53.7482 45.2167 54.4648 45.05 54.9648 44.75C55.4648 44.45 55.8148 43.95 56.0148 43.25C56.2148 42.5167 56.3148 41.5 56.3148 40.2V20.45C56.3148 19.55 56.3315 18.7167 56.3648 17.95C56.4315 17.1833 56.4815 16.5833 56.5148 16.15C55.9482 16.1833 55.2982 16.2167 54.5648 16.25C53.8315 16.25 53.2482 16.2667 52.8148 16.3V13C54.9482 12.9667 57.0982 12.95 59.2648 12.95C61.4315 12.95 63.6148 12.9333 65.8148 12.9C69.7482 12.8667 72.8648 13.5833 75.1648 15.05C77.4648 16.5167 78.5482 18.7667 78.4148 21.8C78.3815 22.8 78.0815 23.7833 77.5148 24.75C76.9482 25.7167 76.1148 26.5833 75.0148 27.35C73.9148 28.1167 72.5315 28.7 70.8648 29.1V29.15C74.2982 29.5167 76.8482 30.55 78.5148 32.25C80.1815 33.9167 81.0148 35.8667 81.0148 38.1C81.0148 40.2333 80.4982 42.0333 79.4648 43.5C78.4315 44.9667 76.9982 46.0833 75.1648 46.85C73.3648 47.6167 71.3148 48 69.0148 48H52.8148ZM62.4148 44.95C62.9815 44.9833 63.5648 45 64.1648 45C64.7982 45 65.3982 45 65.9648 45C66.5315 44.9667 67.0148 44.95 67.4148 44.95C69.6148 44.8833 71.2815 44.25 72.4148 43.05C73.5815 41.8167 74.1648 40.1667 74.1648 38.1C74.1648 36.4 73.8148 35.0667 73.1148 34.1C72.4482 33.1333 71.5648 32.45 70.4648 32.05C69.3982 31.65 68.2482 31.45 67.0148 31.45C66.1148 31.45 65.3315 31.45 64.6648 31.45C63.9982 31.45 63.3148 31.4833 62.6148 31.55V40.75C62.6148 41.65 62.5982 42.4667 62.5648 43.2C62.5315 43.9333 62.4815 44.5167 62.4148 44.95ZM62.6148 28.5L65.5648 28.45C67.1315 28.4167 68.3648 28.0833 69.2648 27.45C70.1648 26.7833 70.8148 25.9333 71.2148 24.9C71.6148 23.8333 71.8148 22.6833 71.8148 21.45C71.7815 19.9833 71.4482 18.85 70.8148 18.05C70.2148 17.2167 69.4648 16.6333 68.5648 16.3C67.6648 15.9667 66.7315 15.8167 65.7648 15.85C65.0648 15.85 64.4815 15.95 64.0148 16.15C63.5482 16.35 63.1982 16.7667 62.9648 17.4C62.7315 18.0333 62.6148 18.9833 62.6148 20.25V28.5ZM94.7461 48.8C92.8128 48.8 91.2294 48.4333 89.9961 47.7C88.7961 46.9667 87.9128 45.8 87.3461 44.2C86.7794 42.5667 86.4961 40.4333 86.4961 37.8V31C86.4961 30.4333 86.5128 29.8 86.5461 29.1C86.5794 28.4 86.6128 27.7 86.6461 27C86.1128 27.0333 85.5128 27.0667 84.8461 27.1C84.1794 27.1 83.6294 27.1167 83.1961 27.15V23.95H84.0461C85.8794 23.95 87.2961 23.8 88.2961 23.5C89.3294 23.1667 90.0294 22.8333 90.3961 22.5H92.6961V37.8C92.6961 40.2 93.0128 41.9833 93.6461 43.15C94.3128 44.3167 95.3794 44.9 96.8461 44.9C97.8461 44.8667 98.8294 44.5667 99.7961 44C100.796 43.4333 101.596 42.7667 102.196 42V31.2C102.196 30.5333 102.213 29.85 102.246 29.15C102.279 28.4167 102.329 27.7 102.396 27C101.863 27.0333 101.246 27.0667 100.546 27.1C99.8794 27.1 99.3294 27.1167 98.8961 27.15V23.95H100.196C101.729 23.95 102.996 23.7833 103.996 23.45C105.029 23.1167 105.713 22.8 106.046 22.5H108.346V40.45C108.346 40.9167 108.329 41.6 108.296 42.5C108.263 43.4 108.213 44.2167 108.146 44.95C108.713 44.8833 109.313 44.85 109.946 44.85C110.579 44.8167 111.096 44.7833 111.496 44.75V48H102.796C102.729 47.5333 102.663 47.0667 102.596 46.6C102.563 46.1333 102.529 45.6833 102.496 45.25C101.463 46.1833 100.296 47.0167 98.9961 47.75C97.7294 48.45 96.3128 48.8 94.7461 48.8ZM124.913 48.8C122.913 48.8 121.129 48.2833 119.563 47.25C117.996 46.2167 116.763 44.75 115.863 42.85C114.996 40.95 114.563 38.7167 114.563 36.15C114.563 33.45 115.096 31.05 116.163 28.95C117.229 26.85 118.696 25.2 120.563 24C122.463 22.8 124.646 22.2 127.113 22.2C128.079 22.2 128.979 22.3167 129.813 22.55C130.679 22.75 131.429 22.9833 132.063 23.25V18.8C132.063 18.3 132.063 17.6833 132.063 16.95C132.096 16.2167 132.146 15.4833 132.213 14.75C131.679 14.7833 131.063 14.8167 130.363 14.85C129.696 14.8833 129.129 14.9167 128.663 14.95V11.7C130.196 11.7 131.446 11.6333 132.413 11.5C133.379 11.3333 134.129 11.1333 134.663 10.9C135.229 10.6667 135.629 10.45 135.863 10.25H138.163V40.85C138.163 41.35 138.146 41.9833 138.113 42.75C138.079 43.4833 138.029 44.2167 137.963 44.95C138.529 44.8833 139.113 44.85 139.713 44.85C140.346 44.8167 140.879 44.7833 141.313 44.75V48H132.613C132.546 47.6 132.479 47.2 132.413 46.8C132.379 46.3667 132.329 45.9667 132.263 45.6C131.229 46.7 130.096 47.5 128.863 48C127.629 48.5333 126.313 48.8 124.913 48.8ZM127.263 44.95C128.196 44.95 129.096 44.7 129.963 44.2C130.829 43.6667 131.529 43.0167 132.063 42.25C132.029 41.7833 132.013 41.3167 132.013 40.85C132.013 40.35 132.013 39.85 132.013 39.35L132.063 26.55C131.563 26.15 130.929 25.85 130.163 25.65C129.396 25.4167 128.613 25.3 127.813 25.3C126.246 25.3333 124.963 25.8333 123.963 26.8C122.996 27.7333 122.279 28.9667 121.813 30.5C121.379 32.0333 121.179 33.7 121.213 35.5C121.213 37.1333 121.429 38.6667 121.863 40.1C122.296 41.5333 122.946 42.7 123.813 43.6C124.713 44.5 125.863 44.95 127.263 44.95ZM154.746 48.8C152.746 48.8 150.963 48.2833 149.396 47.25C147.83 46.2167 146.596 44.75 145.696 42.85C144.83 40.95 144.396 38.7167 144.396 36.15C144.396 33.45 144.93 31.05 145.996 28.95C147.063 26.85 148.53 25.2 150.396 24C152.296 22.8 154.48 22.2 156.946 22.2C157.913 22.2 158.813 22.3167 159.646 22.55C160.513 22.75 161.263 22.9833 161.896 23.25V18.8C161.896 18.3 161.896 17.6833 161.896 16.95C161.93 16.2167 161.98 15.4833 162.046 14.75C161.513 14.7833 160.896 14.8167 160.196 14.85C159.53 14.8833 158.963 14.9167 158.496 14.95V11.7C160.03 11.7 161.28 11.6333 162.246 11.5C163.213 11.3333 163.963 11.1333 164.496 10.9C165.063 10.6667 165.463 10.45 165.696 10.25H167.996V40.85C167.996 41.35 167.98 41.9833 167.946 42.75C167.913 43.4833 167.863 44.2167 167.796 44.95C168.363 44.8833 168.946 44.85 169.546 44.85C170.18 44.8167 170.713 44.7833 171.146 44.75V48H162.446C162.38 47.6 162.313 47.2 162.246 46.8C162.213 46.3667 162.163 45.9667 162.096 45.6C161.063 46.7 159.93 47.5 158.696 48C157.463 48.5333 156.146 48.8 154.746 48.8ZM157.096 44.95C158.03 44.95 158.93 44.7 159.796 44.2C160.663 43.6667 161.363 43.0167 161.896 42.25C161.863 41.7833 161.846 41.3167 161.846 40.85C161.846 40.35 161.846 39.85 161.846 39.35L161.896 26.55C161.396 26.15 160.763 25.85 159.996 25.65C159.23 25.4167 158.446 25.3 157.646 25.3C156.08 25.3333 154.796 25.8333 153.796 26.8C152.83 27.7333 152.113 28.9667 151.646 30.5C151.213 32.0333 151.013 33.7 151.046 35.5C151.046 37.1333 151.263 38.6667 151.696 40.1C152.13 41.5333 152.78 42.7 153.646 43.6C154.546 44.5 155.696 44.95 157.096 44.95ZM179.089 61.55C177.889 61.55 176.872 61.2167 176.039 60.55C175.205 59.8833 174.789 58.9667 174.789 57.8C174.789 57 175.055 56.2833 175.589 55.65C176.122 55.05 176.805 54.7333 177.639 54.7C178.372 54.6667 178.955 54.9 179.389 55.4C179.855 55.9333 180.089 56.5667 180.089 57.3C180.089 57.4 180.089 57.5 180.089 57.6C180.089 57.7333 180.072 57.8667 180.039 58C180.105 58 180.222 58 180.389 58C180.722 57.9333 181.072 57.6833 181.439 57.25C181.839 56.85 182.205 56.3 182.539 55.6C182.939 54.8333 183.355 53.8833 183.789 52.75C184.222 51.65 184.639 50.4167 185.039 49.05L177.189 32.9C176.289 31.0333 175.672 29.6 175.339 28.6C175.039 27.6 174.822 26.7667 174.689 26.1L172.389 26.2V23H184.139V25.65H184.039C182.772 25.75 182.072 26.2333 181.939 27.1C181.805 27.9333 182.022 28.9667 182.589 30.2L187.839 41.85C188.305 40.55 188.822 38.95 189.389 37.05C189.989 35.15 190.655 33.15 191.389 31.05C191.555 30.5167 191.755 29.9333 191.989 29.3C192.255 28.6333 192.522 28 192.789 27.4C193.055 26.8 193.322 26.35 193.589 26.05L190.539 26.2V23H199.089V25.65C197.989 25.95 197.105 26.6333 196.439 27.7C195.805 28.7333 195.205 30.0333 194.639 31.6L188.389 49.3C187.422 52.0333 186.522 54.3 185.689 56.1C184.855 57.9333 183.922 59.3 182.889 60.2C181.889 61.1 180.622 61.55 179.089 61.55Z" fill="#FCFCFC"/>
</svg>
