<svg width="21" height="20" viewBox="0 0 21 20" fill="none" xmlns="http://www.w3.org/2000/svg">
<g id="Frame">
<path id="Vector" d="M10.7508 3.77378C12.7083 2.01667 15.7333 2.075 17.6188 3.96447C19.5044 5.85393 19.5692 8.86417 17.8155 10.8275L10.7499 17.9042L3.68449 10.8275C1.93088 8.86417 1.99643 5.84918 3.88114 3.96447C5.76798 2.07763 8.78766 2.01406 10.7508 3.77378ZM16.4392 5.14175C15.1899 3.88995 13.173 3.83918 11.8642 5.01406L10.7516 6.0127L9.63842 5.01484C8.32582 3.83831 6.31255 3.89007 5.05965 5.14298C3.8182 6.38443 3.75587 8.37275 4.89995 9.686L10.7499 15.5453L16.6001 9.686C17.7446 8.37225 17.6825 6.38771 16.4392 5.14175Z" fill="#1F1F1F"/>
</g>
</svg>
