<svg width="60" height="60" viewBox="0 0 60 60" fill="none" xmlns="http://www.w3.org/2000/svg">
<g clip-path="url(#clip0_155_15)">
<path d="M10.8669 53.1496V50.0595C10.8669 48.8744 10.1456 48.1022 8.96184 48.1022C8.34009 48.1022 7.67482 48.3086 7.21099 48.9727C6.85038 48.4056 6.34054 48.1022 5.56336 48.1022C5.2744 48.0897 4.98685 48.1491 4.72644 48.2749C4.46604 48.4008 4.24089 48.5893 4.07116 48.8235V48.2017H3.09253V53.1458H4.07116V50.3169C4.07116 49.4464 4.58597 49.0299 5.3072 49.0299C6.02843 49.0299 6.44002 49.4937 6.44002 50.3169V53.1496H7.41866V50.3169C7.41866 49.4464 7.93347 49.0299 8.65469 49.0299C9.37592 49.0299 9.78752 49.4937 9.78752 50.3169V53.1496H10.8669ZM26.9354 48.2564H25.1323V46.7642H24.1561V48.2564H23.1265V49.1269H24.1561V51.4497C24.1561 52.5825 24.5677 53.2528 25.8038 53.2528C26.272 53.243 26.7309 53.1192 27.1405 52.8922L26.8309 52.0217C26.5531 52.1954 26.2308 52.2848 25.9033 52.2791C25.3884 52.2791 25.131 51.9695 25.131 51.4547V49.0871H26.9341V48.2626L26.9354 48.2564ZM36.1024 48.1022C35.8359 48.0963 35.5723 48.1596 35.3376 48.286C35.1028 48.4125 34.9049 48.5976 34.7632 48.8235V48.2017H33.7845V53.1458H34.7632V50.3691C34.7632 49.5447 35.1748 49.0299 35.845 49.0299C36.0712 49.039 36.2956 49.0737 36.514 49.1331L36.8236 48.2054C36.5875 48.1459 36.3458 48.1113 36.1024 48.1022ZM22.2486 48.617C21.7338 48.2564 21.0126 48.1022 20.2404 48.1022C19.0043 48.1022 18.2321 48.6693 18.2321 49.6479C18.2321 50.4723 18.7991 50.9349 19.8797 51.0903L20.3946 51.1413C20.9616 51.2445 21.3222 51.451 21.3222 51.7084C21.3222 52.069 20.9106 52.3301 20.1372 52.3301C19.5466 52.3423 18.9681 52.1615 18.4895 51.8153L17.9747 52.5875C18.6959 53.1023 19.5714 53.2093 20.0887 53.2093C21.5311 53.2093 22.3033 52.5403 22.3033 51.6126C22.3033 50.7422 21.6816 50.3256 20.6035 50.1702L20.0887 50.1192C19.6248 50.0682 19.2182 49.9128 19.2182 49.6044C19.2182 49.2438 19.6298 48.9826 20.1968 48.9826C20.8186 48.9826 21.4329 49.24 21.7425 49.3942L22.2486 48.617ZM37.1843 50.6775C37.1843 52.1697 38.1629 53.2528 39.7595 53.2528C40.4808 53.2528 40.9956 53.0986 41.5104 52.6858L40.9956 51.9135C40.6311 52.2087 40.1776 52.3722 39.7086 52.3774C38.8381 52.3774 38.1629 51.7084 38.1629 50.7297C38.1629 49.7511 38.8294 49.0871 39.7086 49.0871C40.1776 49.0923 40.6311 49.2557 40.9956 49.5509L41.5104 48.7787C40.9956 48.3671 40.4808 48.2116 39.7595 48.2116C38.2139 48.1084 37.1843 49.1903 37.1843 50.6837V50.6775ZM30.2828 48.1022C28.8404 48.1022 27.8618 49.1318 27.8618 50.6775C27.8618 52.2232 28.8914 53.2528 30.3848 53.2528C31.1114 53.2681 31.8209 53.0318 32.3931 52.5838L31.8783 51.8626C31.4644 52.1832 30.9591 52.3636 30.4358 52.3774C29.7668 52.3774 29.0456 51.9658 28.9436 51.0903H32.6007V50.6787C32.6007 49.1331 31.6731 48.1035 30.2828 48.1035V48.1022ZM30.2319 49.0299C30.9531 49.0299 31.4679 49.4937 31.5189 50.2659H28.8416C28.9958 49.5447 29.4634 49.0299 30.2319 49.0299ZM16.8929 50.6775V48.2054H15.9142V48.8272C15.5536 48.3634 15.0438 48.106 14.3176 48.106C12.9274 48.106 11.8965 49.1878 11.8965 50.6812C11.8965 52.1747 12.9261 53.2565 14.3176 53.2565C15.0388 53.2565 15.5536 52.9991 15.9142 52.5353V53.157H16.8929V50.6775ZM12.9274 50.6775C12.9274 49.7499 13.4944 49.0299 14.473 49.0299C15.4007 49.0299 15.9652 49.7511 15.9652 50.6775C15.9652 51.6561 15.3435 52.3251 14.473 52.3251C13.4944 52.3761 12.9274 51.6039 12.9274 50.6775ZM50.9883 48.1022C50.7218 48.0963 50.4582 48.1596 50.2235 48.286C49.9888 48.4125 49.7908 48.5976 49.6491 48.8235V48.2017H48.6705V53.1458H49.6478V50.3691C49.6478 49.5447 50.0594 49.0299 50.7297 49.0299C50.9559 49.039 51.1803 49.0737 51.3987 49.1331L51.7083 48.2054C51.4722 48.1459 51.2304 48.1113 50.9871 48.1022H50.9883ZM47.177 50.6775V48.2054H46.1984V48.8272C45.8378 48.3634 45.3279 48.106 44.6017 48.106C43.2115 48.106 42.1806 49.1878 42.1806 50.6812C42.1806 52.1747 43.2103 53.2565 44.6017 53.2565C45.323 53.2565 45.8378 52.9991 46.1984 52.5353V53.157H47.177V50.6775ZM43.2115 50.6775C43.2115 49.7499 43.7785 49.0299 44.7572 49.0299C45.6848 49.0299 46.2494 49.7511 46.2494 50.6775C46.2494 51.6561 45.6276 52.3251 44.7572 52.3251C43.7785 52.3761 43.2115 51.6039 43.2115 50.6775ZM57.1175 50.6775V46.2482H56.1389V48.8235C55.7783 48.3596 55.2685 48.1022 54.5422 48.1022C53.152 48.1022 52.1212 49.1841 52.1212 50.6775C52.1212 52.1709 53.1508 53.2528 54.5422 53.2528C55.2635 53.2528 55.7783 52.9954 56.1389 52.5316V53.1533H57.1175V50.6775ZM53.152 50.6775C53.152 49.7499 53.7191 49.0299 54.6977 49.0299C55.6253 49.0299 56.1899 49.7511 56.1899 50.6775C56.1899 51.6561 55.5681 52.3251 54.6977 52.3251C53.7178 52.3774 53.1508 51.6052 53.1508 50.6775H53.152Z" fill="black"/>
<path d="M38.9873 10.7115H21.1158V39.8616H38.9873V10.7115Z" fill="#FF5F00"/>
<path d="M22.9189 25.2865C22.9195 22.4823 23.5545 19.7145 24.7764 17.1904C25.9982 14.6664 27.7753 12.4514 29.9745 10.7115C27.2395 8.56113 23.9547 7.22369 20.4954 6.85206C17.0362 6.48043 13.5423 7.0896 10.4129 8.60994C7.28358 10.1303 4.64515 12.5004 2.79924 15.4495C0.953331 18.3985 -0.0255737 21.8074 -0.0255737 25.2865C-0.0255737 28.7656 0.953331 32.1746 2.79924 35.1236C4.64515 38.0726 7.28358 40.4428 10.4129 41.9631C13.5423 43.4835 17.0362 44.0926 20.4954 43.721C23.9547 43.3494 27.2395 42.0119 29.9745 39.8616C27.7753 38.1216 25.9982 35.9067 24.7764 33.3826C23.5545 30.8586 22.9195 28.0908 22.9189 25.2865Z" fill="#EB001B"/>
<path d="M60.0012 25.2865C60.0037 28.7631 59.0277 32.1702 57.1848 35.1182C55.3419 38.0661 52.7066 40.4359 49.5801 41.9564C46.4537 43.4769 42.9624 44.0869 39.5057 43.7164C36.0489 43.346 32.7661 42.0101 30.0329 39.8616C32.2326 38.1221 34.01 35.9072 35.232 33.3831C36.4539 30.8589 37.0887 28.0909 37.0887 25.2865C37.0887 22.4822 36.4539 19.7142 35.232 17.19C34.01 14.6658 32.2326 12.451 30.0329 10.7115C32.7661 8.56301 36.0489 7.22714 39.5057 6.85668C42.9624 6.48623 46.4537 7.09615 49.5801 8.61668C52.7066 10.1372 55.3419 12.507 57.1848 15.4549C59.0277 18.4029 60.0037 21.81 60.0012 25.2865Z" fill="#F79E1B"/>
</g>
<defs>
<clipPath id="clip0_155_15">
<rect width="60" height="60" fill="white"/>
</clipPath>
</defs>
</svg>
