<svg width="71" height="53" viewBox="0 0 71 53" fill="none" xmlns="http://www.w3.org/2000/svg">
<path d="M78.0769 0H5.92308C2.65709 0 0 2.5979 0 5.79114V46.9609C0 50.1541 2.65709 52.752 5.92308 52.752H78.0769C81.3427 52.752 84 50.1541 84 46.9609V5.79114C84 2.5979 81.3427 0 78.0769 0Z" fill="white"/>
<path d="M18.2866 17.7473C17.3879 17.1295 16.2151 16.8198 14.7684 16.8198H9.16737C8.72385 16.8198 8.47882 17.0416 8.43228 17.4847L6.15692 31.7675C6.13328 31.9078 6.16837 32.0361 6.26189 32.1527C6.35487 32.2696 6.47182 32.3277 6.61189 32.3277H9.27233C9.73896 32.3277 9.99544 32.1064 10.0425 31.6627L10.6725 27.8122C10.6955 27.6255 10.7776 27.4738 10.9177 27.357C11.0576 27.2403 11.2327 27.1641 11.4427 27.1291C11.6528 27.0944 11.8508 27.077 12.0379 27.077C12.2244 27.077 12.446 27.0887 12.7031 27.1119C12.9596 27.1353 13.1231 27.1466 13.1931 27.1466C15.2 27.1466 16.7753 26.5811 17.919 25.4489C19.0622 24.3172 19.6344 22.7478 19.6344 20.7405C19.6344 19.3637 19.1848 18.3661 18.2866 17.7473ZM15.3986 22.0359C15.2816 22.8528 14.9785 23.3893 14.4885 23.6461C13.9983 23.9032 13.2982 24.031 12.3882 24.031L11.2329 24.0661L11.8281 20.3203C11.8746 20.0639 12.0262 19.9355 12.2831 19.9355H12.9484C13.8815 19.9355 14.5587 20.0699 14.9788 20.3379C15.3986 20.6064 15.5387 21.1727 15.3986 22.0359Z" fill="#003087"/>
<path d="M46.0991 22.4558C46.0991 22.3393 46.0522 22.2283 45.9594 22.1234C45.8658 22.0184 45.7606 21.9657 45.6443 21.9657H42.9487C42.6915 21.9657 42.4816 22.083 42.3186 22.3157L38.608 27.777L37.0678 22.526C36.9506 22.1527 36.6941 21.9657 36.2976 21.9657H33.6718C33.5549 21.9657 33.4498 22.0183 33.357 22.1234C33.2634 22.2283 33.217 22.3394 33.217 22.4558C33.217 22.5028 33.4446 23.191 33.8995 24.5212C34.3545 25.8516 34.8447 27.2869 35.3698 28.8274C35.895 30.3674 36.1689 31.1847 36.1924 31.2775C34.2786 33.8915 33.3219 35.2918 33.3219 35.4782C33.3219 35.7819 33.4736 35.9334 33.777 35.9334H36.4726C36.7293 35.9334 36.9392 35.817 37.1027 35.5835L46.0294 22.7008C46.0758 22.6544 46.0991 22.573 46.0991 22.4558Z" fill="#003087"/>
<path d="M71.1989 21.9657H68.5382C68.2113 21.9657 68.0135 22.3508 67.9435 23.1209C67.3361 22.1879 66.2282 21.7205 64.6176 21.7205C62.9373 21.7205 61.5076 22.3508 60.3294 23.611C59.1507 24.8713 58.5616 26.3535 58.5616 28.057C58.5616 29.4341 58.9641 30.5309 59.7691 31.3474C60.5743 32.1648 61.6536 32.5727 63.0076 32.5727C63.6842 32.5727 64.3726 32.4324 65.0727 32.1526C65.7729 31.8726 66.3209 31.4994 66.7183 31.0324C66.7183 31.0558 66.6945 31.1607 66.6482 31.3473C66.6011 31.5343 66.5781 31.6746 66.5781 31.7674C66.5781 32.1412 66.7294 32.3274 67.0333 32.3274H69.4489C69.8917 32.3274 70.1488 32.1062 70.2187 31.6624L71.6541 22.5258C71.6771 22.3857 71.6421 22.2576 71.549 22.1407C71.4554 22.0242 71.3389 21.9657 71.1989 21.9657ZM66.6306 28.862C66.0355 29.4455 65.3179 29.7371 64.4778 29.7371C63.8007 29.7371 63.2527 29.5507 62.8324 29.177C62.4123 28.8042 62.2022 28.2907 62.2022 27.6368C62.2022 26.7738 62.4939 26.0441 63.0775 25.4489C63.6603 24.8538 64.3844 24.5562 65.248 24.5562C65.9008 24.5562 66.4435 24.7488 66.8757 25.1338C67.3071 25.5189 67.5234 26.0501 67.5234 26.7268C67.5233 27.5669 67.2256 28.2789 66.6306 28.862Z" fill="#009CDE"/>
<path d="M31.4316 21.9657H28.7711C28.4439 21.9657 28.246 22.3508 28.1759 23.1209C27.5458 22.1879 26.4371 21.7205 24.8502 21.7205C23.1699 21.7205 21.7403 22.3508 20.5619 23.611C19.3832 24.8713 18.7941 26.3535 18.7941 28.057C18.7941 29.4341 19.1968 30.5309 20.0019 31.3474C20.8071 32.1648 21.8862 32.5727 23.24 32.5727C23.8931 32.5727 24.5703 32.4324 25.2703 32.1526C25.9704 31.8726 26.5306 31.4994 26.9506 31.0324C26.857 31.3124 26.8106 31.5576 26.8106 31.7674C26.8106 32.1412 26.9622 32.3274 27.2656 32.3274H29.6811C30.1241 32.3274 30.3812 32.1062 30.4512 31.6624L31.8864 22.5258C31.9094 22.3857 31.8745 22.2576 31.7815 22.1407C31.6881 22.0242 31.5715 21.9657 31.4316 21.9657ZM26.8632 28.8794C26.268 29.4518 25.5383 29.7371 24.6754 29.7371C23.9982 29.7371 23.4556 29.5507 23.0475 29.177C22.6389 28.8042 22.4348 28.2907 22.4348 27.6368C22.4348 26.7738 22.7264 26.0441 23.3101 25.4489C23.8931 24.8538 24.6166 24.5562 25.4805 24.5562C26.1336 24.5562 26.6762 24.7488 27.1084 25.1338C27.5398 25.5189 27.7559 26.0501 27.7559 26.7268C27.7559 27.5903 27.4583 28.3082 26.8632 28.8794Z" fill="#003087"/>
<path d="M58.0538 17.7473C57.1552 17.1295 55.9827 16.8198 54.5358 16.8198H48.9697C48.5027 16.8198 48.2459 17.0416 48.1996 17.4847L45.9242 31.7674C45.9006 31.9077 45.9355 32.036 46.0292 32.1526C46.1218 32.2694 46.2391 32.3275 46.3792 32.3275H49.2496C49.5296 32.3275 49.7162 32.176 49.8097 31.8726L50.4399 27.812C50.463 27.6254 50.5448 27.4737 50.685 27.3569C50.825 27.2402 50.9999 27.1639 51.2101 27.129C51.42 27.0943 51.6181 27.0768 51.8052 27.0768C51.9917 27.0768 52.2133 27.0886 52.4701 27.1118C52.7268 27.1352 52.8907 27.1465 52.9602 27.1465C54.9674 27.1465 56.5425 26.581 57.6862 25.4488C58.8297 24.3171 59.4015 22.7477 59.4015 20.7404C59.4016 19.3637 58.9521 18.3661 58.0538 17.7473ZM54.4657 23.506C53.9522 23.856 53.182 24.031 52.1554 24.031L51.0351 24.0661L51.6303 20.3203C51.6765 20.0639 51.8281 19.9355 52.0853 19.9355H52.7152C53.2285 19.9355 53.6369 19.9588 53.9408 20.0053C54.2437 20.0524 54.5358 20.1978 54.8158 20.4428C55.096 20.688 55.2359 21.044 55.2359 21.5107C55.2359 22.4908 54.9789 23.1558 54.4657 23.506Z" fill="#009CDE"/>
</svg>
