<svg width="114" height="64" viewBox="0 0 114 64" fill="none" xmlns="http://www.w3.org/2000/svg">
<g id="Group 28">
<g id="Page-1">
<g id="paypal">
<path id="Shape" d="M93.0769 6H20.9231C17.6571 6 15 8.5979 15 11.7911V52.9609C15 56.1541 17.6571 58.752 20.9231 58.752H93.0769C96.3427 58.752 99 56.1541 99 52.9609V11.7911C99 8.5979 96.3427 6 93.0769 6Z" fill="white"/>
<g id="Group">
<path id="Shape_2" d="M33.2866 23.7473C32.3879 23.1295 31.2151 22.8198 29.7684 22.8198H24.1674C23.7239 22.8198 23.4788 23.0416 23.4323 23.4847L21.1569 37.7675C21.1333 37.9078 21.1684 38.0361 21.2619 38.1527C21.3549 38.2696 21.4718 38.3277 21.6119 38.3277H24.2723C24.739 38.3277 24.9954 38.1064 25.0425 37.6627L25.6725 33.8122C25.6955 33.6255 25.7776 33.4738 25.9177 33.357C26.0576 33.2403 26.2327 33.1641 26.4427 33.1291C26.6528 33.0944 26.8508 33.077 27.0379 33.077C27.2244 33.077 27.446 33.0887 27.7031 33.1119C27.9596 33.1353 28.1231 33.1466 28.1931 33.1466C30.2 33.1466 31.7753 32.5811 32.919 31.4489C34.0622 30.3172 34.6344 28.7478 34.6344 26.7405C34.6344 25.3637 34.1848 24.3661 33.2866 23.7473ZM30.3986 28.0359C30.2816 28.8528 29.9785 29.3893 29.4885 29.6461C28.9983 29.9032 28.2982 30.031 27.3882 30.031L26.2329 30.0661L26.8281 26.3203C26.8746 26.0639 27.0262 25.9355 27.2831 25.9355H27.9484C28.8815 25.9355 29.5587 26.0699 29.9788 26.3379C30.3986 26.6064 30.5387 27.1727 30.3986 28.0359Z" fill="#003087"/>
<path id="Shape_3" d="M92.395 22.8198H89.8047C89.5474 22.8198 89.3959 22.9482 89.3496 23.2049L87.0741 37.7675L87.039 37.8375C87.039 37.9548 87.0857 38.0651 87.1792 38.1702C87.2721 38.275 87.3893 38.3275 87.5291 38.3275H89.8398C90.2826 38.3275 90.5277 38.1063 90.575 37.6625L92.8504 23.3447V23.3099C92.8502 22.9832 92.6981 22.8198 92.395 22.8198Z" fill="#009CDE"/>
<path id="Shape_4" d="M61.0992 28.4558C61.0992 28.3393 61.0522 28.2283 60.9594 28.1234C60.8658 28.0184 60.7606 27.9657 60.6443 27.9657H57.9488C57.6915 27.9657 57.4816 28.083 57.3186 28.3157L53.608 33.777L52.0678 28.526C51.9507 28.1527 51.6941 27.9657 51.2976 27.9657H48.6719C48.5549 27.9657 48.4498 28.0183 48.3571 28.1234C48.2634 28.2283 48.217 28.3394 48.217 28.4558C48.217 28.5028 48.4446 29.191 48.8996 30.5212C49.3545 31.8516 49.8447 33.2869 50.3699 34.8274C50.895 36.3674 51.1689 37.1847 51.1925 37.2775C49.2787 39.8915 48.322 41.2918 48.322 41.4782C48.322 41.7819 48.4736 41.9334 48.777 41.9334H51.4726C51.7293 41.9334 51.9392 41.817 52.1027 41.5835L61.0294 28.7008C61.0758 28.6544 61.0992 28.573 61.0992 28.4558Z" fill="#003087"/>
<path id="Shape_5" d="M86.1989 27.9657H83.5382C83.2114 27.9657 83.0135 28.3508 82.9435 29.1209C82.3361 28.1879 81.2282 27.7205 79.6177 27.7205C77.9373 27.7205 76.5076 28.3508 75.3294 29.611C74.1507 30.8713 73.5617 32.3535 73.5617 34.057C73.5617 35.4341 73.9641 36.5309 74.7692 37.3474C75.5743 38.1648 76.6537 38.5727 78.0076 38.5727C78.6842 38.5727 79.3726 38.4324 80.0727 38.1526C80.7729 37.8726 81.3209 37.4994 81.7183 37.0324C81.7183 37.0558 81.6945 37.1607 81.6482 37.3473C81.6011 37.5343 81.5781 37.6746 81.5781 37.7674C81.5781 38.1412 81.7294 38.3274 82.0333 38.3274H84.4489C84.8917 38.3274 85.1488 38.1062 85.2187 37.6624L86.6541 28.5258C86.6771 28.3857 86.6421 28.2576 86.549 28.1407C86.4554 28.0242 86.339 27.9657 86.1989 27.9657ZM81.6306 34.862C81.0355 35.4455 80.318 35.7371 79.4778 35.7371C78.8007 35.7371 78.2528 35.5507 77.8325 35.177C77.4123 34.8042 77.2022 34.2907 77.2022 33.6368C77.2022 32.7738 77.4939 32.0441 78.0775 31.4489C78.6603 30.8538 79.3844 30.5562 80.248 30.5562C80.9008 30.5562 81.4435 30.7488 81.8757 31.1338C82.3071 31.5189 82.5235 32.0501 82.5235 32.7268C82.5234 33.5669 82.2257 34.2789 81.6306 34.862Z" fill="#009CDE"/>
<path id="Shape_6" d="M46.4316 27.9657H43.7712C43.444 27.9657 43.246 28.3508 43.1759 29.1209C42.5458 28.1879 41.4372 27.7205 39.8503 27.7205C38.1699 27.7205 36.7403 28.3508 35.5619 29.611C34.3832 30.8713 33.7942 32.3535 33.7942 34.057C33.7942 35.4341 34.1968 36.5309 35.002 37.3474C35.8072 38.1648 36.8862 38.5727 38.24 38.5727C38.8931 38.5727 39.5703 38.4324 40.2703 38.1526C40.9704 37.8726 41.5306 37.4994 41.9507 37.0324C41.857 37.3124 41.8106 37.5576 41.8106 37.7674C41.8106 38.1412 41.9622 38.3274 42.2657 38.3274H44.6811C45.1242 38.3274 45.3812 38.1062 45.4513 37.6624L46.8865 28.5258C46.9095 28.3857 46.8745 28.2576 46.7815 28.1407C46.6881 28.0242 46.5716 27.9657 46.4316 27.9657ZM41.8632 34.8794C41.268 35.4518 40.5384 35.7371 39.6754 35.7371C38.9982 35.7371 38.4556 35.5507 38.0475 35.177C37.6389 34.8042 37.4348 34.2907 37.4348 33.6368C37.4348 32.7738 37.7264 32.0441 38.3101 31.4489C38.8931 30.8538 39.6167 30.5562 40.4805 30.5562C41.1336 30.5562 41.6762 30.7488 42.1084 31.1338C42.5398 31.5189 42.7559 32.0501 42.7559 32.7268C42.7559 33.5903 42.4584 34.3082 41.8632 34.8794Z" fill="#003087"/>
<path id="Shape_7" d="M73.0538 23.7473C72.1552 23.1295 70.9827 22.8198 69.5358 22.8198H63.9697C63.5027 22.8198 63.2459 23.0416 63.1996 23.4847L60.9242 37.7674C60.9006 37.9077 60.9355 38.036 61.0292 38.1526C61.1218 38.2694 61.2391 38.3275 61.3792 38.3275H64.2496C64.5296 38.3275 64.7162 38.176 64.8097 37.8726L65.4399 33.812C65.463 33.6254 65.5448 33.4737 65.685 33.3569C65.825 33.2402 65.9999 33.1639 66.2101 33.129C66.42 33.0943 66.6181 33.0768 66.8052 33.0768C66.9917 33.0768 67.2133 33.0886 67.4701 33.1118C67.7268 33.1352 67.8907 33.1465 67.9602 33.1465C69.9674 33.1465 71.5425 32.581 72.6862 31.4488C73.8297 30.3171 74.4015 28.7477 74.4015 26.7404C74.4016 25.3637 73.9521 24.3661 73.0538 23.7473ZM69.4657 29.506C68.9522 29.856 68.182 30.031 67.1554 30.031L66.0351 30.0661L66.6303 26.3203C66.6765 26.0639 66.8281 25.9355 67.0853 25.9355H67.7152C68.2285 25.9355 68.6369 25.9588 68.9408 26.0053C69.2437 26.0524 69.5358 26.1978 69.8158 26.4428C70.096 26.688 70.2359 27.044 70.2359 27.5107C70.2359 28.4908 69.9789 29.1558 69.4657 29.506Z" fill="#009CDE"/>
</g>
</g>
</g>
<rect id="Rectangle 44" x="0.5" y="0.5" width="113" height="63" rx="3.5" stroke="#ECECEC"/>
</g>
</svg>
