<svg width="18" height="18" viewBox="0 0 18 18" fill="none" xmlns="http://www.w3.org/2000/svg">
<path id="Vector" d="M2.7022 3.88071L0 1.17851L1.17851 0L3.88071 2.7022H16.5821C17.0424 2.7022 17.4155 3.07529 17.4155 3.53553C17.4155 3.61663 17.4037 3.6973 17.3804 3.77498L15.3804 10.4417C15.2747 10.7941 14.9502 11.0355 14.5822 11.0355H4.36887V12.7022H13.5356V14.3689H3.53553C3.07529 14.3689 2.7022 13.9958 2.7022 13.5355V3.88071ZM4.36887 4.36887V9.36886H13.9622L15.4622 4.36887H4.36887ZM3.9522 17.7022C3.26184 17.7022 2.7022 17.1425 2.7022 16.4522C2.7022 15.7619 3.26184 15.2022 3.9522 15.2022C4.64256 15.2022 5.2022 15.7619 5.2022 16.4522C5.2022 17.1425 4.64256 17.7022 3.9522 17.7022ZM13.9522 17.7022C13.2618 17.7022 12.7022 17.1425 12.7022 16.4522C12.7022 15.7619 13.2618 15.2022 13.9522 15.2022C14.6426 15.2022 15.2022 15.7619 15.2022 16.4522C15.2022 17.1425 14.6426 17.7022 13.9522 17.7022Z" fill="#1F1F1F"/>
</svg>
