<svg width="84" height="53" viewBox="0 0 84 53" fill="none" xmlns="http://www.w3.org/2000/svg">
<path d="M31.5754 35.6325L35.1679 14.5506H40.9142L37.319 35.6325H31.5754ZM58.0796 15.0051C56.9414 14.578 55.1573 14.1196 52.9296 14.1196C47.2514 14.1196 43.2521 16.979 43.2178 21.077C43.1858 24.1063 46.0733 25.7963 48.2529 26.8046C50.4897 27.8382 51.2415 28.4971 51.2308 29.4197C51.2164 30.8329 49.4446 31.4782 47.7928 31.4782C45.493 31.4782 44.2712 31.1587 42.384 30.3719L41.6432 30.0369L40.837 34.7562C42.1791 35.3449 44.6609 35.8545 47.238 35.881C53.2784 35.881 57.1997 33.0543 57.2443 28.678C57.2657 26.2797 55.7349 24.4549 52.4196 22.9501C50.4111 21.9748 49.1811 21.324 49.1941 20.3365C49.1941 19.4602 50.2353 18.5232 52.4852 18.5232C54.364 18.494 55.7254 18.9038 56.786 19.3309L57.3008 19.5741L58.0796 15.0051ZM72.8668 14.5503H68.4266C67.0512 14.5503 66.0217 14.9257 65.4177 16.2986L56.8836 35.6186H62.9178C62.9178 35.6186 63.9041 33.0209 64.1272 32.4505C64.7866 32.4505 70.6485 32.4595 71.4865 32.4595C71.6584 33.1976 72.1856 35.6186 72.1856 35.6186H77.5177L72.8668 14.5496V14.5503ZM65.8219 28.1637C66.2972 26.949 68.1114 22.2703 68.1114 22.2703C68.0776 22.3264 68.5832 21.0497 68.8732 20.2582L69.2616 22.0758C69.2616 22.0758 70.3619 27.1082 70.5919 28.1634H65.8219V28.1637ZM26.6973 14.5503L21.0715 28.9272L20.4722 26.0056C19.4248 22.6377 16.1618 18.9887 12.514 17.1619L17.6581 35.5989L23.7379 35.5921L32.7845 14.5501L26.6973 14.55" fill="#0E4595"/>
<path d="M15.8221 14.5496H6.55617L6.48273 14.9882C13.6915 16.7332 18.4613 20.9504 20.4418 26.018L18.427 16.33C18.0793 14.9951 17.0704 14.5966 15.8223 14.5501" fill="#F2AE14"/>
</svg>
